ModelForces
version=1
nRows=4
nColumns=211
inDegrees=no

This file contains the forces exerted on a model during a simulation.

A force is a generalized force, meaning that it can be either a force (N) or a torque (Nm).

Units are S.I. units (second, meters, Newtons, ...)
Angles are in degrees.

endheader
time	glut_med1_r	glut_med2_r	glut_med3_r	glut_min1_r	glut_min2_r	glut_min3_r	semimem_r	semiten_r	bifemlh_r	bifemsh_r	sar_r	add_long_r	add_brev_r	add_mag1_r	add_mag2_r	add_mag3_r	tfl_r	pect_r	grac_r	glut_max1_r	glut_max2_r	glut_max3_r	iliacus_r	psoas_r	quad_fem_r	gem_r	peri_r	rect_fem_r	vas_med_r	vas_int_r	vas_lat_r	med_gas_r	lat_gas_r	soleus_r	tib_post_r	flex_dig_r	flex_hal_r	tib_ant_r	per_brev_r	per_long_r	per_tert_r	ext_dig_r	ext_hal_r	glut_med1_l	glut_med2_l	glut_med3_l	glut_min1_l	glut_min2_l	glut_min3_l	semimem_l	semiten_l	bifemlh_l	bifemsh_l	sar_l	add_long_l	add_brev_l	add_mag1_l	add_mag2_l	add_mag3_l	tfl_l	pect_l	grac_l	glut_max1_l	glut_max2_l	glut_max3_l	iliacus_l	psoas_l	quad_fem_l	gem_l	peri_l	rect_fem_l	vas_med_l	vas_int_l	vas_lat_l	med_gas_l	lat_gas_l	soleus_l	tib_post_l	flex_dig_l	flex_hal_l	tib_ant_l	per_brev_l	per_long_l	per_tert_l	ext_dig_l	ext_hal_l	ercspn_r	ercspn_l	intobl_r	intobl_l	extobl_r	extobl_l	femur_lat_meniscii_l.femur_lat_l.force.X	femur_lat_meniscii_l.femur_lat_l.force.Y	femur_lat_meniscii_l.femur_lat_l.force.Z	femur_lat_meniscii_l.femur_lat_l.torque.X	femur_lat_meniscii_l.femur_lat_l.torque.Y	femur_lat_meniscii_l.femur_lat_l.torque.Z	femur_lat_meniscii_l.meniscus_lat_l.force.X	femur_lat_meniscii_l.meniscus_lat_l.force.Y	femur_lat_meniscii_l.meniscus_lat_l.force.Z	femur_lat_meniscii_l.meniscus_lat_l.torque.X	femur_lat_meniscii_l.meniscus_lat_l.torque.Y	femur_lat_meniscii_l.meniscus_lat_l.torque.Z	femur_med_meniscii_l.femur_med_l.force.X	femur_med_meniscii_l.femur_med_l.force.Y	femur_med_meniscii_l.femur_med_l.force.Z	femur_med_meniscii_l.femur_med_l.torque.X	femur_med_meniscii_l.femur_med_l.torque.Y	femur_med_meniscii_l.femur_med_l.torque.Z	femur_med_meniscii_l.meniscus_med_l.force.X	femur_med_meniscii_l.meniscus_med_l.force.Y	femur_med_meniscii_l.meniscus_med_l.force.Z	femur_med_meniscii_l.meniscus_med_l.torque.X	femur_med_meniscii_l.meniscus_med_l.torque.Y	femur_med_meniscii_l.meniscus_med_l.torque.Z	femur_lat_meniscii_r.femur_lat_r.force.X	femur_lat_meniscii_r.femur_lat_r.force.Y	femur_lat_meniscii_r.femur_lat_r.force.Z	femur_lat_meniscii_r.femur_lat_r.torque.X	femur_lat_meniscii_r.femur_lat_r.torque.Y	femur_lat_meniscii_r.femur_lat_r.torque.Z	femur_lat_meniscii_r.meniscus_lat_r.force.X	femur_lat_meniscii_r.meniscus_lat_r.force.Y	femur_lat_meniscii_r.meniscus_lat_r.force.Z	femur_lat_meniscii_r.meniscus_lat_r.torque.X	femur_lat_meniscii_r.meniscus_lat_r.torque.Y	femur_lat_meniscii_r.meniscus_lat_r.torque.Z	femur_med_meniscii_r.femur_med_r.force.X	femur_med_meniscii_r.femur_med_r.force.Y	femur_med_meniscii_r.femur_med_r.force.Z	femur_med_meniscii_r.femur_med_r.torque.X	femur_med_meniscii_r.femur_med_r.torque.Y	femur_med_meniscii_r.femur_med_r.torque.Z	femur_med_meniscii_r.meniscus_med_r.force.X	femur_med_meniscii_r.meniscus_med_r.force.Y	femur_med_meniscii_r.meniscus_med_r.force.Z	femur_med_meniscii_r.meniscus_med_r.torque.X	femur_med_meniscii_r.meniscus_med_r.torque.Y	femur_med_meniscii_r.meniscus_med_r.torque.Z	femur_med_tibia_l.tibia_upper_l.force.X	femur_med_tibia_l.tibia_upper_l.force.Y	femur_med_tibia_l.tibia_upper_l.force.Z	femur_med_tibia_l.tibia_upper_l.torque.X	femur_med_tibia_l.tibia_upper_l.torque.Y	femur_med_tibia_l.tibia_upper_l.torque.Z	femur_med_tibia_l.femur_med_l.force.X	femur_med_tibia_l.femur_med_l.force.Y	femur_med_tibia_l.femur_med_l.force.Z	femur_med_tibia_l.femur_med_l.torque.X	femur_med_tibia_l.femur_med_l.torque.Y	femur_med_tibia_l.femur_med_l.torque.Z	femur_lat_tibia_l.tibia_upper_l.force.X	femur_lat_tibia_l.tibia_upper_l.force.Y	femur_lat_tibia_l.tibia_upper_l.force.Z	femur_lat_tibia_l.tibia_upper_l.torque.X	femur_lat_tibia_l.tibia_upper_l.torque.Y	femur_lat_tibia_l.tibia_upper_l.torque.Z	femur_lat_tibia_l.femur_lat_l.force.X	femur_lat_tibia_l.femur_lat_l.force.Y	femur_lat_tibia_l.femur_lat_l.force.Z	femur_lat_tibia_l.femur_lat_l.torque.X	femur_lat_tibia_l.femur_lat_l.torque.Y	femur_lat_tibia_l.femur_lat_l.torque.Z	femur_med_tibia_r.tibia_upper_r.force.X	femur_med_tibia_r.tibia_upper_r.force.Y	femur_med_tibia_r.tibia_upper_r.force.Z	femur_med_tibia_r.tibia_upper_r.torque.X	femur_med_tibia_r.tibia_upper_r.torque.Y	femur_med_tibia_r.tibia_upper_r.torque.Z	femur_med_tibia_r.femur_med_r.force.X	femur_med_tibia_r.femur_med_r.force.Y	femur_med_tibia_r.femur_med_r.force.Z	femur_med_tibia_r.femur_med_r.torque.X	femur_med_tibia_r.femur_med_r.torque.Y	femur_med_tibia_r.femur_med_r.torque.Z	femur_lat_tibia_r.tibia_upper_r.force.X	femur_lat_tibia_r.tibia_upper_r.force.Y	femur_lat_tibia_r.tibia_upper_r.force.Z	femur_lat_tibia_r.tibia_upper_r.torque.X	femur_lat_tibia_r.tibia_upper_r.torque.Y	femur_lat_tibia_r.tibia_upper_r.torque.Z	femur_lat_tibia_r.femur_lat_r.force.X	femur_lat_tibia_r.femur_lat_r.force.Y	femur_lat_tibia_r.femur_lat_r.force.Z	femur_lat_tibia_r.femur_lat_r.torque.X	femur_lat_tibia_r.femur_lat_r.torque.Y	femur_lat_tibia_r.femur_lat_r.torque.Z	aACL_R	pACL_R	aPCL_R	pPCL_R	aMCL_R	aLCL_R	aPCL_L	pPCL_L	aMCL_L	aLCL_L	ground_prescribedForce_fx	ground_prescribedForce_fy	ground_prescribedForce_fz	ground_prescribedForce_px	ground_prescribedForce_py	ground_prescribedForce_pz	ground_prescribedForce_fx	ground_prescribedForce_fy	ground_prescribedForce_fz	ground_prescribedForce_px	ground_prescribedForce_py	ground_prescribedForce_pz
      0.15375884	     12.07709527	      8.75581792	      9.42268365	      4.03484662	      4.67767962	      5.10317484	     16.49682726	      6.85229159	     15.65370601	     12.33172502	      2.32130651	      8.71903711	      6.26003958	      4.49966233	      3.82160242	      6.46500664	      5.89406375	      3.40683335	      2.42100163	      5.65466497	      8.60309051	      6.46984486	     28.30393350	     19.39230642	      5.55381783	      3.78094312	      7.30072527	     20.42804404	     12.45070760	     13.00145870	     16.99113891	      6.14667635	      3.08917354	     10.77550233	     11.51046098	      3.45328565	      5.27922608	     20.50705733	      6.19462224	     13.70447633	      8.01322111	     12.60720367	      3.47077607	     12.07709527	      8.75581792	      9.42268365	      4.03484662	      4.67767962	      5.10317484	     15.06502376	      6.50780837	     13.03258492	     11.05476984	      2.30172847	      8.71903711	      6.26003958	      4.49966233	      3.82160242	      6.46500664	      5.63271911	      3.40683335	      2.37797085	      5.65466497	      8.60309051	      6.46984486	     28.30393350	     19.39230642	      5.55381783	      3.78094312	      7.30072527	     17.98612578	     10.30883583	     11.91947705	     12.80141073	     26.02409798	     12.09506755	     55.55051355	     52.59958780	      5.38742171	      5.39107721	     14.02463354	      7.52402394	     19.36380113	      2.99783675	      9.44232882	      2.96096740	     37.98252494	     37.98252494	     14.16462530	     14.16462530	     31.46480333	     31.46480333	      2.76307435	     50.99597937	     -9.56042239	      5.21997485	     -0.02578839	      1.48581788	     -2.76307435	    -50.99597937	      9.56042239	     -1.74637766	      0.02558040	     -0.48301696	     -3.31599387	     20.97615968	     -3.40468921	      0.94473225	     -0.02138609	     -1.00501789	      3.31599387	    -20.97615968	      3.40468921	      0.28075727	      0.00368718	     -0.29758878	     38.11402387	     65.95048508	     12.21532657	     -6.71263251	      0.93972236	     15.86637634	    -38.11402387	    -65.95048508	    -12.21532657	      2.30533268	     -1.12048302	     -1.13887940	     76.74420266	    116.06332839	      5.65983240	      0.10993746	     -1.64125292	     32.29711666	    -76.74420266	   -116.06332839	     -5.65983240	     -1.75691394	      1.28448881	     -2.64904329	      0.00000000	      0.00000000	      0.00000000	      0.00000000	      0.00000000	      0.00000000	      0.00000000	      0.00000000	      0.00000000	      0.00000000	      0.00000000	      0.00000000	      0.00000000	      0.00000000	      0.00000000	      0.00000000	      0.00000000	      0.00000000	      0.00000000	      0.00000000	      0.00000000	      0.00000000	      0.00000000	      0.00000000	      0.00000000	      0.00000000	      0.00000000	      0.00000000	      0.00000000	      0.00000000	      0.00000000	      0.00000000	      0.00000000	      0.00000000	      0.00000000	      0.00000000	      0.00000000	      0.00000000	      0.00000000	      0.00000000	      0.00000000	      0.00000000	      0.00000000	      0.00000000	      0.00000000	      0.00000000	      0.00000000	      0.00000000	     18.15475926	     23.70126056	      0.00000000	      4.52497143	      2.62080285	      7.68111190	      0.00000000	      0.00000000	      0.00000001	      0.00000000	     67.00000000	      0.00000000	      0.00000000	      0.00000000	     -0.05000000	     -0.10000000	     67.00000000	      0.00000000	      0.00000000	      0.00000000	     -0.05000000	      0.10000000
      0.15727670	     11.87020273	      8.61534992	      9.26974312	      3.97268141	      4.60962424	      5.01593883	     16.15981676	      6.71445411	     15.38853603	     12.17038432	      2.28586615	      8.57758202	      6.16417935	      4.42776249	      3.75915094	      6.35186090	      5.83465057	      3.35399345	      2.37940426	      5.56354631	      8.46416800	      6.36381196	     28.04458262	     19.09648608	      5.46646533	      3.73810775	      7.16206247	     20.04267639	     12.19505696	     12.76636991	     16.71857823	      6.09378978	      3.07840043	     10.69755530	     11.39291506	      3.09765012	      4.87418667	     20.18758538	      6.05292466	     13.33664367	      2.57823165	     11.93747343	      3.57650898	     11.87020273	      8.61534992	      9.26974312	      3.97268141	      4.60962424	      5.01593883	     14.78454806	      6.39706588	     12.79275781	     10.88068947	      2.26640152	      8.57758202	      6.16417935	      4.42776249	      3.75915094	      6.35186090	      5.56249743	      3.35399345	      2.34088929	      5.56354631	      8.46416800	      6.36381196	     28.04458262	     19.09648608	      5.46646533	      3.73810775	      7.16206247	     17.65697175	     10.13849549	     11.71951436	     12.58665314	     25.52515444	     11.86262982	     54.49212922	     52.13908016	      5.27027695	      5.27937970	     13.77216596	      7.38262812	     19.06308610	      2.95227442	      9.26363133	      2.90521441	     37.39614305	     37.39614305	     13.92894538	     13.92894538	     31.25073640	     31.25073640	      2.76307435	     50.99597937	     -9.56042239	      5.21997485	     -0.02578839	      1.48581788	     -2.76307435	    -50.99597937	      9.56042239	     -1.74637766	      0.02558040	     -0.48301696	     -3.31599387	     20.97615968	     -3.40468921	      0.94473225	     -0.02138609	     -1.00501789	      3.31599387	    -20.97615968	      3.40468921	      0.28075727	      0.00368718	     -0.29758878	     37.55313204	     64.40703620	     12.38158843	     -6.73800287	      0.92366490	     15.63772143	    -37.55313204	    -64.40703620	    -12.38158843	      2.25597252	     -1.10050568	     -1.12390770	     75.63181457	    115.84308492	      5.26566172	      0.27726500	     -1.62137287	     31.83379963	    -75.63181457	   -115.84308492	     -5.26566172	     -1.77897392	      1.27338564	     -2.60881464	      0.00000000	      0.00000000	      0.00000000	      0.00000000	      0.00000000	      0.00000000	      0.00000000	      0.00000000	      0.00000000	      0.00000000	      0.00000000	      0.00000000	      0.00000000	      0.00000000	      0.00000000	      0.00000000	      0.00000000	      0.00000000	      0.00000000	      0.00000000	      0.00000000	      0.00000000	      0.00000000	      0.00000000	      0.00000000	      0.00000000	      0.00000000	      0.00000000	      0.00000000	      0.00000000	      0.00000000	      0.00000000	      0.00000000	      0.00000000	      0.00000000	      0.00000000	      0.00000000	      0.00000000	      0.00000000	      0.00000000	      0.00000000	      0.00000000	      0.00000000	      0.00000000	      0.00000000	      0.00000000	      0.00000000	      0.00000000	     19.25093022	     25.23476826	      0.00000000	      5.33899528	      2.80427430	      8.56754126	      0.00000000	      0.00000000	      0.00000001	      0.00000000	     67.00000000	      0.00000000	      0.00000000	      0.00000000	     -0.05000000	     -0.10000000	     67.00000000	      0.00000000	      0.00000000	      0.00000000	     -0.05000000	      0.10000000
      0.15771730	     11.84497738	      8.59822155	      9.25109523	      3.96510152	      4.60132557	      5.00530252	     16.11894430	      6.69782446	     15.35683973	     12.14974091	      2.28081046	      8.56033454	      6.15252333	      4.41899553	      3.75153710	      6.33806482	      5.82768958	      3.34754947	      2.37426263	      5.55243709	      8.44723042	      6.35088474	     28.01297129	     19.06043056	      5.45581267	      3.73288802	      7.14512801	     19.99635159	     12.16377524	     12.73824950	     16.68524030	      6.08678016	      3.07683004	     10.68608770	     11.38056879	      3.05613852	      4.82402220	     20.15001429	      6.03395421	     13.29003594	      4.46662872	     12.01147898	      3.58224007	     11.84497738	      8.59822155	      9.25109523	      3.96510152	      4.60132557	      5.00530252	     14.75031265	      6.38356381	     12.76349494	     10.85946078	      2.26209622	      8.56033454	      6.15252333	      4.41899553	      3.75153710	      6.33806482	      5.55393602	      3.34754947	      2.33636701	      5.55243709	      8.44723042	      6.35088474	     28.01297129	     19.06043056	      5.45581267	      3.73288802	      7.14512801	     17.61681423	     10.11773204	     11.69514041	     12.56047874	     25.46417055	     11.83422176	     54.36287739	     52.08292362	      5.25596946	      5.26574879	     13.74137225	      7.36537134	     19.02638739	      2.94672086	      9.24179112	      2.89840106	     37.32463778	     37.32463778	     13.90021052	     13.90021052	     31.22464759	     31.22464759	      2.76307435	     50.99597937	     -9.56042239	      5.21997485	     -0.02578839	      1.48581788	     -2.76307435	    -50.99597937	      9.56042239	     -1.74637766	      0.02558040	     -0.48301696	     -3.31599387	     20.97615968	     -3.40468921	      0.94473225	     -0.02138609	     -1.00501789	      3.31599387	    -20.97615968	      3.40468921	      0.28075727	      0.00368718	     -0.29758878	     37.50293850	     64.32287765	     12.36947867	     -6.73009786	      0.92188663	     15.61704535	    -37.50293850	    -64.32287765	    -12.36947867	      2.25192042	     -1.09831535	     -1.12223758	     75.61675586	    115.71683094	      5.32218536	      0.25113387	     -1.62137147	     31.82836499	    -75.61675586	   -115.71683094	     -5.32218536	     -1.77594827	      1.27386820	     -2.60850790	      0.00000000	      0.00000000	      0.00000000	      0.00000000	      0.00000000	      0.00000000	      0.00000000	      0.00000000	      0.00000000	      0.00000000	      0.00000000	      0.00000000	      0.00000000	      0.00000000	      0.00000000	      0.00000000	      0.00000000	      0.00000000	      0.00000000	      0.00000000	      0.00000000	      0.00000000	      0.00000000	      0.00000000	      0.00000000	      0.00000000	      0.00000000	      0.00000000	      0.00000000	      0.00000000	      0.00000000	      0.00000000	      0.00000000	      0.00000000	      0.00000000	      0.00000000	      0.00000000	      0.00000000	      0.00000000	      0.00000000	      0.00000000	      0.00000000	      0.00000000	      0.00000000	      0.00000000	      0.00000000	      0.00000000	      0.00000000	     19.32906484	     25.37233623	      0.00000000	      5.17122552	      2.68375864	      8.44001202	      0.00000000	      0.00000000	      0.00000001	      0.00000000	     67.00000000	      0.00000000	      0.00000000	      0.00000000	     -0.05000000	     -0.10000000	     67.00000000	      0.00000000	      0.00000000	      0.00000000	     -0.05000000	      0.10000000
      0.15872008	     11.78812433	      8.55961598	      9.20906594	      3.94801709	      4.58262112	      4.98133027	     16.02409788	      6.65913399	     15.28189218	     12.09343894	      2.26870198	      8.52146153	      6.12625526	      4.39923598	      3.73437740	      6.30697051	      5.81143207	      3.33302472	      2.36165774	      5.52739936	      8.40905676	      6.32174994	     27.94173338	     18.97917838	      5.43180184	      3.72112618	      7.10693814	     19.88796932	     12.08698575	     12.66682882	     16.59971806	      6.06389024	      3.06963264	     10.64649678	     11.34685760	      2.96305981	      4.70897212	     20.06565302	      5.99464249	     13.18802361	      5.63429303	     12.09719152	      3.59093398	     11.78812433	      8.55961598	      9.20906594	      3.94801709	      4.58262112	      4.98133027	     14.67312158	      6.35313294	     12.69752433	     10.81161218	      2.25239324	      8.52146153	      6.12625526	      4.39923598	      3.73437740	      6.30697051	      5.53464052	      3.33302472	      2.32617377	      5.52739936	      8.40905676	      6.32174994	     27.94173338	     18.97917838	      5.43180184	      3.72112618	      7.10693814	     17.52628638	     10.07093942	     11.64021143	     12.50149465	     25.32660164	     11.77013967	     54.07139876	     51.95634963	      5.22370385	      5.23501810	     13.67195980	      7.32646398	     18.94364722	      2.93420551	      9.19252342	      2.88303187	     37.16346753	     37.16346753	     13.83544800	     13.83544800	     31.16585739	     31.16585739	      2.76307435	     50.99597937	     -9.56042239	      5.21997485	     -0.02578839	      1.48581788	     -2.76307435	    -50.99597937	      9.56042239	     -1.74637766	      0.02558040	     -0.48301696	     -3.31599387	     20.97615968	     -3.40468921	      0.94473225	     -0.02138609	     -1.00501789	      3.31599387	    -20.97615968	      3.40468921	      0.28075727	      0.00368718	     -0.29758878	     37.51357187	     64.14671661	     12.49209193	     -6.77592390	      0.92140652	     15.62271306	    -37.51357187	    -64.14671661	    -12.49209193	      2.24866397	     -1.09753575	     -1.12299565	     75.61171918	    115.72992985	      5.41674375	      0.21281524	     -1.62237186	     31.82817434	    -75.61171918	   -115.72992985	     -5.41674375	     -1.77568142	      1.27584161	     -2.60860494	      0.00000000	      0.00000000	      0.00000000	      0.00000000	      0.00000000	      0.00000000	      0.00000000	      0.00000000	      0.00000000	      0.00000000	      0.00000000	      0.00000000	      0.00000000	      0.00000000	      0.00000000	      0.00000000	      0.00000000	      0.00000000	      0.00000000	      0.00000000	      0.00000000	      0.00000000	      0.00000000	      0.00000000	      0.00000000	      0.00000000	      0.00000000	      0.00000000	      0.00000000	      0.00000000	      0.00000000	      0.00000000	      0.00000000	      0.00000000	      0.00000000	      0.00000000	      0.00000000	      0.00000000	      0.00000000	      0.00000000	      0.00000000	      0.00000000	      0.00000000	      0.00000000	      0.00000000	      0.00000000	      0.00000000	      0.00000000	     19.52995799	     25.70317504	      0.00000000	      4.97234910	      2.48933925	      8.30259196	      0.00000000	      0.00000000	      0.00000001	      0.00000000	     67.00000000	      0.00000000	      0.00000000	      0.00000000	     -0.05000000	     -0.10000000	     67.00000000	      0.00000000	      0.00000000	      0.00000000	     -0.05000000	      0.10000000
